<?xml version="1.0" standalone="no"?>
<!DOCTYPE svg PUBLIC "-//W3C//DTD SVG 20010904//EN"
 "http://www.w3.org/TR/2001/REC-SVG-20010904/DTD/svg10.dtd">
<svg version="1.0" xmlns="http://www.w3.org/2000/svg"
 width="225.000000pt" height="225.000000pt" viewBox="0 0 225.000000 225.000000"
 preserveAspectRatio="xMidYMid meet">

<g transform="translate(0.000000,225.000000) scale(0.100000,-0.100000)"
fill="#000000" stroke="none">
<path d="M0 1125 l0 -1125 1125 0 1125 0 0 1125 0 1125 -1125 0 -1125 0 0
-1125z m1170 241 c81 -15 175 -47 206 -71 19 -15 19 -15 -1 -10 -16 5 -16 3 3
-6 68 -36 -30 -39 -103 -4 -28 14 -80 32 -116 39 -64 14 -64 14 -19 15 41 1
148 -18 195 -34 16 -6 17 -5 5 4 -8 6 -57 20 -108 32 -154 36 -330 19 -570
-53 -56 -17 -101 -33 -99 -35 2 -2 87 -17 188 -33 101 -17 189 -32 194 -35 17
-7 -154 6 -264 21 -298 40 -469 -12 -472 -143 l0 -28 -10 25 c-6 14 -9 51 -7
82 5 64 23 92 76 115 44 18 42 47 -6 72 l-37 20 35 -7 c19 -3 58 -7 86 -7 48
0 49 -1 30 -17 -19 -15 -19 -18 -6 -32 24 -24 79 -21 158 7 234 86 463 115
642 83z m-387 -91 c-4 -20 0 -25 23 -30 16 -4 34 -8 40 -10 6 -2 179 0 385 5
236 5 409 4 469 -2 110 -12 272 -50 307 -74 23 -14 23 -17 9 -33 -9 -10 -16
-22 -16 -28 0 -14 26 -24 45 -17 26 10 16 -14 -20 -51 -46 -45 -68 -47 -53 -5
24 69 -32 120 -153 140 -35 5 -219 10 -409 10 -430 0 -592 17 -669 67 l-25 16
23 18 c33 27 49 24 44 -6z m-335 -192 c3 -17 -2 -23 -15 -23 -11 0 -24 5 -30
11 -6 6 -26 9 -44 7 -30 -3 -34 -6 -34 -33 0 -28 3 -30 43 -33 25 -2 42 1 42
7 0 6 11 11 25 11 29 0 33 -21 9 -44 -18 -19 -114 -22 -145 -6 -15 9 -19 22
-19 64 0 29 3 56 7 60 4 4 41 5 83 4 69 -3 75 -5 78 -25z m180 -32 c17 -33 32
-64 32 -70 0 -17 -40 -13 -46 4 -4 10 -20 15 -49 15 -26 0 -47 -6 -55 -15 -13
-15 -50 -21 -50 -7 0 4 14 35 32 69 31 59 35 63 68 63 32 0 37 -5 68 -59z
m209 -13 c2 -60 0 -68 -16 -68 -10 0 -21 9 -24 20 -7 28 -86 30 -83 3 0 -12
-7 -19 -21 -21 -22 -3 -23 0 -23 68 l0 71 83 -3 82 -3 2 -67z m191 60 c18 -18
15 -93 -5 -109 -10 -9 -42 -14 -92 -14 l-76 0 -2 68 -2 67 82 0 c51 0 88 -5
95 -12z m182 -3 c0 -12 -16 -15 -80 -15 -64 0 -80 3 -80 15 0 12 16 15 80 15
64 0 80 -3 80 -15z m60 -35 l0 -50 45 0 c38 0 45 -3 45 -20 0 -18 -7 -20 -70
-20 l-70 0 0 70 c0 68 1 70 25 70 23 0 25 -3 25 -50z m150 -1 l0 -50 43 3 42
3 3 48 c3 39 6 47 23 47 17 0 19 -7 19 -60 0 -73 -15 -84 -102 -78 -70 5 -78
14 -78 86 0 49 1 52 25 52 23 0 25 -3 25 -51z m223 29 l15 -23 24 23 c14 12
37 22 53 22 l29 0 -32 -33 -32 -33 30 -29 c16 -16 30 -32 30 -37 0 -18 -48 -6
-70 17 l-24 25 -26 -25 c-15 -14 -38 -25 -53 -25 -34 0 -34 5 3 37 28 23 40
53 23 53 -5 0 -16 12 -26 25 l-18 25 29 0 c19 0 35 -8 45 -22z m287 7 c0 -12
-16 -15 -80 -15 -64 0 -80 3 -80 15 0 12 16 15 80 15 64 0 80 -3 80 -15z
m-730 -50 c0 -11 -12 -15 -50 -15 -27 0 -50 -4 -50 -10 0 -5 25 -10 56 -10 47
0 55 -3 52 -17 -3 -15 -15 -18 -78 -18 l-75 0 -3 43 -3 42 75 0 c61 0 76 -3
76 -15z m720 0 c0 -11 -12 -15 -50 -15 -27 0 -50 -4 -50 -10 0 -5 25 -10 55
-10 49 0 55 -2 55 -20 0 -19 -5 -21 -77 -18 l-78 3 -3 43 -3 42 75 0 c61 0 76
-3 76 -15z m-86 -126 c-17 -7 -17 -8 -1 -8 25 -1 23 -41 -2 -41 -11 0 -23 5
-27 11 -4 8 0 9 15 4 11 -3 21 -2 21 3 0 5 -10 12 -22 15 -18 5 -19 9 -9 21 7
8 20 12 28 9 14 -6 14 -8 -3 -14z m-1496 -14 c7 -14 12 -27 12 -28 0 -2 -15
-3 -34 -3 l-34 0 14 28 c18 35 27 35 42 3z m59 8 c6 -15 7 -15 14 3 6 14 8 11
8 -15 1 -33 0 -34 -18 -17 -18 17 -19 17 -24 -1 -3 -10 -5 -4 -6 15 -1 34 15
44 26 15z m131 -8 c7 -14 12 -27 12 -28 0 -2 -15 -3 -34 -3 l-34 0 14 28 c18
35 27 35 42 3z m42 6 c0 -11 5 -23 10 -26 6 -4 10 5 10 19 0 14 5 26 10 26 16
0 12 -50 -5 -56 -8 -4 -22 -1 -30 6 -17 14 -20 50 -5 50 6 0 10 -9 10 -19z
m103 12 c-7 -2 -14 -17 -14 -31 l-2 -27 -4 25 c-3 14 -10 28 -17 32 -6 4 3 7
19 7 17 0 24 -3 18 -6z m82 -23 c0 -18 -6 -26 -23 -28 -24 -4 -38 18 -28 44 3
9 15 14 28 12 17 -2 23 -10 23 -28z m51 19 c4 -8 9 -8 17 0 18 18 27 12 27
-19 0 -16 -4 -30 -10 -30 -5 0 -10 6 -10 13 0 8 -7 14 -15 14 -8 0 -15 -6 -15
-14 0 -7 -4 -13 -10 -13 -5 0 -10 14 -10 30 0 30 13 40 26 19z m119 -19 c0
-18 -6 -26 -23 -28 -24 -4 -38 18 -28 44 3 9 15 14 28 12 17 -2 23 -10 23 -28z
m68 23 c-7 -2 -14 -17 -14 -31 l-2 -27 -4 25 c-3 14 -10 28 -17 32 -6 4 3 7
19 7 17 0 24 -3 18 -6z m34 -40 c-3 -10 -5 -2 -5 17 0 19 2 27 5 18 2 -10 2
-26 0 -35z m54 19 c0 -11 4 -9 11 8 6 14 12 20 15 13 2 -7 -1 -22 -8 -34 -11
-22 -12 -22 -25 -4 -8 10 -14 25 -14 33 0 19 20 4 21 -16z m84 18 c-17 -7 -17
-9 -2 -9 25 -1 23 -41 -3 -41 -16 0 -20 7 -20 30 0 25 4 30 23 29 21 0 21 -1
2 -9z m107 -1 c-26 -10 -25 -35 2 -33 9 1 16 -2 16 -7 0 -15 -40 -10 -46 6
-10 24 4 45 28 44 l23 0 -23 -10z m86 -14 c7 -14 12 -27 12 -28 0 -1 -13 -2
-30 -2 -32 0 -36 6 -20 36 14 26 25 24 38 -6z m80 -5 c-1 -22 -4 -27 -13 -20
-7 6 -15 6 -23 -2 -9 -9 -12 -5 -12 20 0 27 4 32 24 32 21 0 25 -5 24 -30z
m57 20 c-14 -6 -15 -9 -5 -9 9 -1 16 -10 17 -21 1 -15 -4 -20 -23 -20 -20 0
-24 5 -24 30 0 26 3 30 28 29 24 0 25 -1 7 -9z m100 -10 c7 0 16 6 18 13 3 6
5 -4 5 -23 0 -19 -2 -29 -5 -22 -2 6 -11 12 -18 12 -7 0 -16 -6 -18 -12 -3 -7
-5 3 -5 22 0 19 2 29 5 23 2 -7 11 -13 18 -13z m108 8 c7 -20 -12 -48 -33 -48
-19 0 -36 32 -25 50 9 14 52 12 58 -2z m52 -29 c6 0 13 10 17 23 6 19 7 18 5
-7 -2 -23 -7 -30 -22 -30 -15 0 -20 7 -22 30 -2 25 -1 26 5 7 4 -13 12 -23 17
-23z m150 31 c-17 -7 -17 -9 -2 -9 25 -1 23 -41 -3 -41 -16 0 -20 7 -20 30 0
25 4 30 23 29 21 0 21 -1 2 -9z"/>
<path d="M542 1050 c-11 -18 -10 -20 18 -20 28 0 30 2 20 20 -6 11 -14 20 -18
20 -4 0 -13 -9 -20 -20z"/>
<path d="M715 1060 c-4 -6 12 -10 39 -10 25 0 46 5 46 10 0 6 -18 10 -39 10
-22 0 -43 -4 -46 -10z"/>
<path d="M900 1040 c0 -29 2 -30 45 -30 43 0 45 1 45 30 0 29 -2 30 -45 30
-43 0 -45 -1 -45 -30z"/>
<path d="M714 909 c-10 -17 13 -36 27 -22 12 12 4 33 -11 33 -5 0 -12 -5 -16
-11z"/>
<path d="M886 912 c-2 -4 -1 -14 4 -22 7 -11 12 -12 21 -3 6 6 8 16 5 22 -8
13 -23 14 -30 3z"/>
<path d="M1405 910 c4 -6 11 -8 16 -5 14 9 11 15 -7 15 -8 0 -12 -5 -9 -10z"/>
<path d="M1662 904 c4 -21 22 -23 26 -1 2 10 -3 17 -13 17 -10 0 -15 -6 -13
-16z"/>
</g>
</svg>
