<?xml version="1.0" standalone="no"?>
<!DOCTYPE svg PUBLIC "-//W3C//DTD SVG 20010904//EN"
 "http://www.w3.org/TR/2001/REC-SVG-20010904/DTD/svg10.dtd">
<svg version="1.0" xmlns="http://www.w3.org/2000/svg"
 width="1000.000000pt" height="622.000000pt" viewBox="0 0 1000.000000 622.000000"
 preserveAspectRatio="xMidYMid meet">

<g transform="translate(0.000000,622.000000) scale(0.100000,-0.100000)"
fill="#000000" stroke="none">
<path d="M0 3110 l0 -3110 5000 0 5000 0 0 3110 0 3110 -5000 0 -5000 0 0
-3110z m1655 -45 c199 -42 350 -189 385 -374 22 -119 7 -244 -42 -341 -32 -62
-131 -159 -204 -197 -113 -60 -139 -63 -556 -63 l-378 0 0 495 0 495 363 0
c280 0 378 -4 432 -15z m1805 -60 l0 -75 -420 0 -420 0 0 -125 0 -125 290 0
290 0 0 -75 0 -75 -290 0 -290 0 0 -145 0 -145 438 -2 437 -3 3 -72 3 -73
-526 0 -525 0 0 495 0 495 505 0 505 0 0 -75z m590 -345 l0 -420 380 0 380 0
0 -75 0 -75 -465 0 -465 0 0 495 0 495 85 0 85 0 0 -420z m1250 93 c0 -207 4
-343 11 -368 28 -101 150 -163 344 -172 202 -10 349 35 406 125 l29 46 0 348
0 348 85 0 85 0 0 -367 c0 -365 0 -368 -24 -418 -43 -93 -157 -173 -300 -213
-47 -13 -103 -17 -241 -17 -161 0 -188 2 -255 23 -104 33 -159 63 -214 117
-91 88 -91 87 -94 508 l-3 367 85 0 86 0 0 -327z m3825 252 l0 -70 -417 -3
-418 -2 0 -125 0 -125 290 0 290 0 0 -75 0 -75 -290 0 -290 0 0 -145 0 -145
435 0 435 0 0 -75 0 -75 -520 0 -520 0 0 495 0 495 503 -2 502 -3 0 -70z
m-5652 -1459 c-2 -3 -3 -16 -3 -28 -1 -21 -2 -21 -11 -5 -7 12 -23 17 -54 17
l-45 0 0 -66 0 -66 55 4 c54 3 55 3 55 -24 0 -30 -14 -37 -24 -12 -4 11 -17
14 -43 12 l-38 -3 -3 -57 c-4 -77 8 -98 58 -98 30 0 42 5 50 21 15 27 24 17
16 -16 -6 -25 -8 -25 -98 -25 -72 0 -89 3 -80 12 8 8 12 60 12 170 0 157 0
158 -22 158 -14 0 -18 3 -11 8 13 8 189 7 186 -2z m347 -125 c69 -77 128 -140
133 -140 8 -1 10 184 1 227 -4 17 -14 33 -23 35 -9 3 6 5 32 6 44 1 47 0 33
-15 -13 -13 -16 -44 -17 -177 l0 -162 -132 138 c-73 75 -135 137 -137 137 -3
0 -4 -53 -2 -117 3 -108 5 -120 25 -135 22 -17 21 -18 -33 -17 -48 0 -53 1
-37 13 15 12 17 33 17 180 0 91 3 166 8 166 4 0 63 -63 132 -139z m630 105 c0
-28 -1 -28 -18 -13 -11 11 -36 17 -63 17 l-44 0 3 -154 c3 -148 4 -154 25
-162 17 -6 9 -8 -32 -11 -56 -4 -75 2 -51 17 11 7 15 44 18 159 l4 151 -56 0
c-41 0 -58 -4 -62 -15 -4 -8 -10 -15 -15 -15 -4 0 -6 7 -4 15 3 8 7 21 9 28 2
9 40 12 145 12 l141 0 0 -29z m290 -83 c57 -154 89 -223 106 -223 7 0 16 -4
19 -10 4 -6 -12 -10 -39 -10 -29 0 -46 4 -46 12 0 7 -10 38 -22 70 l-23 58
-52 0 -51 0 -18 -52 c-13 -40 -14 -55 -5 -70 10 -17 7 -18 -40 -18 -31 0 -48
4 -44 10 3 6 12 10 19 10 15 0 29 31 93 208 26 72 50 132 54 132 3 0 25 -53
49 -117z m1148 101 c4 -5 5 -27 1 -49 -3 -22 -7 -31 -8 -19 -2 41 -37 59 -112
59 -64 0 -71 -2 -101 -33 -31 -31 -33 -36 -33 -106 0 -83 14 -112 75 -153 59
-41 170 -25 170 24 0 7 5 13 10 13 6 0 8 -11 4 -27 -12 -51 -21 -55 -114 -51
-77 3 -91 6 -124 32 -46 35 -66 79 -66 146 0 82 26 128 95 165 23 12 50 15
113 12 45 -2 86 -8 90 -13z m312 -41 c73 -199 96 -250 123 -275 l29 -28 -46 0
c-28 0 -46 5 -46 11 0 7 -10 38 -22 71 l-21 59 -51 -3 -50 -3 -19 -50 c-14
-38 -16 -54 -8 -67 10 -16 6 -18 -39 -18 -55 0 -63 6 -27 19 19 8 34 39 83
175 32 91 62 166 66 166 4 0 16 -26 28 -57z m864 51 c17 -7 22 -54 6 -54 -5 0
-10 6 -10 14 0 28 -69 36 -94 10 -28 -28 -18 -55 43 -113 64 -61 81 -86 81
-124 0 -58 -77 -106 -142 -89 -30 7 -33 12 -36 48 l-2 39 14 -31 c16 -36 55
-50 89 -33 59 31 51 71 -28 151 -56 57 -65 70 -65 102 0 52 36 86 89 86 22 0
46 -3 55 -6z m-4021 -24 c39 -31 42 -65 12 -123 -23 -44 -24 -52 -11 -71 33
-50 99 -116 116 -116 10 0 22 -4 25 -10 9 -15 -52 -12 -83 4 -15 8 -47 41 -71
75 -39 54 -49 61 -78 61 -31 0 -33 -2 -33 -34 0 -54 11 -96 26 -96 8 0 14 -4
14 -10 0 -5 -22 -10 -50 -10 -44 0 -67 13 -40 22 13 4 25 210 16 270 -5 32
-13 48 -24 51 -9 3 22 5 69 6 72 1 90 -2 112 -19z m2045 9 c-16 -9 -18 -27
-18 -152 0 -98 4 -147 12 -155 7 -7 31 -12 55 -12 33 0 45 5 53 21 15 27 24
17 16 -16 -6 -25 -7 -25 -108 -25 -97 0 -100 1 -85 18 14 16 17 43 17 166 0
143 -1 147 -22 156 -18 7 -9 9 37 9 45 0 56 -2 43 -10z m1571 -4 c49 -25 56
-88 15 -142 l-25 -33 52 -66 c36 -45 60 -67 80 -71 39 -8 37 -23 -4 -23 -42 0
-66 18 -122 90 -38 49 -51 60 -76 60 -29 0 -29 0 -29 -59 0 -49 3 -61 23 -74
21 -15 19 -16 -38 -16 -52 0 -58 1 -42 13 15 12 17 32 17 164 0 133 -2 152
-17 161 -30 17 133 14 166 -4z m1096 -185 l470 -3 -490 -7 c-269 -4 -493 -6
-498 -3 -14 8 2 20 25 18 13 -1 235 -4 493 -5z m-5025 -9 c0 -8 -961 -4 -985
4 -5 2 214 4 488 4 284 1 497 -3 497 -8z"/>
<path d="M1021 2585 l0 -346 307 3 307 3 57 28 c64 32 106 75 145 150 24 46
27 64 27 152 1 88 -2 107 -25 156 -34 72 -96 134 -167 167 -57 27 -57 27 -354
30 l-297 3 0 -346z"/>
<path d="M4676 1470 c-21 -56 -36 -104 -32 -107 2 -2 22 -3 44 -1 l39 3 -23
60 c-14 37 -24 54 -28 45z"/>
<path d="M6142 1420 l-21 -60 46 0 c39 0 44 2 38 18 -4 9 -14 36 -22 60 -8 23
-16 42 -18 42 -2 0 -12 -27 -23 -60z"/>
<path d="M2937 1532 c-16 -3 -17 -13 -15 -80 l3 -77 42 -3 c49 -4 66 17 66 80
0 58 -41 91 -96 80z"/>
<path d="M6568 1532 c-15 -3 -18 -15 -18 -83 l0 -79 39 0 c30 0 44 6 55 22 44
62 -7 156 -76 140z"/>
</g>
</svg>
